HIERARCHY
ROOT Hips
{
	OFFSET 0.00000 0.00000 0.00000
	CHANNELS 6 Xposition Yposition Zposition Yrotation Zrotation Xrotation 
	JOINT Lumbar
	{
		OFFSET 0 0 0
		CHANNELS 3 Zrotation Xrotation Yrotation
		JOINT Neck
		{
			OFFSET 0.00 0.2701 0.00
			CHANNELS 3 Zrotation Xrotation Yrotation
			End Site
			{
				OFFSET 0.00 0.1379 0.00
			}
		}
		JOINT RightShoulder
		{
			OFFSET 0.0119 0.2289 0.1181
			CHANNELS 3 Zrotation Xrotation Yrotation
			JOINT RightElbow
			{
				OFFSET 0.00 -0.1475 0.00
				CHANNELS 2 Zrotation Yrotation
				JOINT RightWrist
				{
					OFFSET 0.00 -0.1605 0.00
					CHANNELS 2 Zrotation Xrotation
					End Site
					{
						OFFSET 0.0040 -0.1068 0.0006
					}
				}
			}
		}
		JOINT LeftShoulder
		{
			OFFSET 0.0119 0.2289 -0.1181
			CHANNELS 3 Zrotation Xrotation Yrotation
			JOINT LeftElbow
			{
				OFFSET 0.00 -0.1475 0.00
				CHANNELS 2 Zrotation Yrotation
				JOINT LeftWrist
				{
					OFFSET 0.00 -0.1605 0.00
					CHANNELS 2 Zrotation Xrotation
					End Site
					{
						OFFSET 0.0040 -0.1068 -0.0006
					}
				}
			}
		}
	}
	JOINT RightHip
	{
		OFFSET 0.0316 -0.0424 0.0458
		CHANNELS 3 Zrotation Xrotation Yrotation
		JOINT RightKnee
		{
			OFFSET 0.00 -0.2438 0.00
			CHANNELS 1 Zrotation
			JOINT RightAnkle
			{
				OFFSET 0.00 -0.2449 0.00
				CHANNELS 3 Zrotation Xrotation Yrotation
				End Site
				{
					OFFSET 0.1237 -0.0542 0.0051
				}
			}
		}
	}
	JOINT LeftHip
	{
		OFFSET 0.0316 -0.0424 -0.0458
		CHANNELS 3 Zrotation Xrotation Yrotation
		JOINT LeftKnee
		{
			OFFSET 0.00 -0.2438 0.00
			CHANNELS 1 Zrotation
			JOINT LeftAnkle
			{
				OFFSET 0.00 -0.2449 0.00
				CHANNELS 3 Zrotation Xrotation Yrotation
				End Site
				{
					OFFSET 0.1237 -0.0542 -0.0051
				}
			}
		}
	}
}
MOTION
Frames: 19
Frame Time: 0.02
0.80085 0.4123 0.25825 536.78688 0 5.49379 6.73153 -2.88569 -1.25407 -59.94196 2.30807 2.27512 44.43816 -21.65573 30.90182 113.10874 62.39981 -21.6246 -0.39363 48.72544 12.27251 -25.5858 113.62492 -105.98877 -30.501 6.76228 69.32262 12.62755 -1.10255 -73.53263 -3.98366 -2.89332 -3.47845 88.33562 -12.84517 28.45085 -89.36479 -16.83511 2.2412 -1.8689
0.80091 0.41228 0.25827 536.79494 0 5.49784 6.83214 -2.90416 -1.27534 -59.87984 2.28839 2.35205 44.39348 -21.69939 30.89804 113.13458 62.24855 -21.70449 -0.37829 48.67986 12.23675 -25.59009 113.65547 -105.89854 -30.40956 6.75575 69.33422 12.62883 -1.08311 -73.53575 -3.9944 -2.88984 -3.47891 88.35408 -12.84643 28.42282 -89.36565 -16.83381 2.24072 -1.85632
0.80098 0.41224 0.25828 536.80518 0 5.50205 6.9213 -2.92569 -1.30839 -59.82026 2.26109 2.44654 44.34275 -21.75426 30.87305 113.17189 62.07563 -21.7442 -0.35142 48.64883 12.19395 -25.60663 113.68015 -105.82033 -30.33683 6.75166 69.34843 12.62995 -1.06231 -73.53961 -4.00499 -2.88797 -3.47847 88.37818 -12.84878 28.38557 -89.35674 -16.82482 2.24116 -1.83905
0.80105 0.41221 0.25829 536.81481 0 5.50584 7.01453 -2.94544 -1.33637 -59.75854 2.23654 2.53031 44.2972 -21.80341 30.86903 113.20257 61.92166 -21.83722 -0.33536 48.60929 12.15643 -25.61976 113.7113 -105.73715 -30.25524 6.74662 69.3614 12.6311 -1.04248 -73.54333 -4.01524 -2.88545 -3.47911 88.39907 -12.85066 28.35395 -89.35106 -16.81963 2.24118 -1.8245
0.80112 0.41218 0.25831 536.82257 0 5.51106 7.11097 -2.9666 -1.36402 -59.69508 2.21493 2.62527 44.23674 -21.85555 30.81979 113.24164 61.73052 -21.7897 -0.29714 48.57107 12.11027 -25.62335 113.73121 -105.65088 -30.17447 6.74071 69.37544 12.63244 -1.02166 -73.54741 -4.02696 -2.88242 -3.47665 88.42355 -12.85242 28.31576 -89.35148 -16.81324 2.24119 -1.80691
0.80119 0.41215 0.25832 536.83473 0 5.51336 7.19845 -2.98568 -1.39457 -59.6373 2.18558 2.70126 44.20681 -21.90398 30.85781 113.26508 61.6101 -22.02027 -0.30133 48.53569 12.08016 -25.64985 113.77055 -105.5742 -30.09698 6.7372 69.38758 12.63334 -1.00248 -73.55052 -4.03566 -2.88088 -3.4804 88.44166 -12.85468 28.28925 -89.33667 -16.80746 2.24143 -1.79463
0.80123 0.41215 0.25834 536.85986 0 5.50735 7.26596 -2.99782 -1.43322 -59.6045 2.13483 2.72023 44.27345 -21.93979 31.15291 113.24189 61.70375 -23.05531 -0.4316 48.5099 12.09871 -25.73671 113.87409 -105.52226 -30.02044 6.74065 69.39354 12.63318 -0.98713 -73.55021 -4.03612 -2.88326 -3.50309 88.4397 -12.85834 28.29728 -89.2801 -16.80569 2.24233 -1.79945
0.80127 0.41215 0.25835 536.88914 0 5.49844 7.32468 -3.00788 -1.47374 -59.57637 2.07697 2.71961 44.36971 -21.97146 31.53418 113.20238 61.86702 -24.36505 -0.60367 48.4864 12.13317 -25.84609 113.9952 -105.47956 -29.94724 6.74632 69.39742 12.63257 -0.97362 -73.54882 -4.03358 -2.88708 -3.53181 88.4312 -12.86243 28.31743 -89.20881 -16.80474 2.24341 -1.80961
0.80131 0.41214 0.25836 536.91569 0 5.49103 7.38642 -3.01923 -1.51133 -59.54061 2.02353 2.72822 44.44629 -22.00463 31.8687 113.17035 61.98929 -25.53192 -0.75252 48.45955 12.15865 -25.94533 114.10163 -105.43189 -29.87492 6.75039 69.40231 12.6321 -0.95987 -73.54813 -4.0324 -2.89017 -3.55677 88.42629 -12.86614 28.33212 -89.14543 -16.80311 2.24427 -1.81654
0.80135 0.41214 0.25837 536.94588 0 5.48288 7.452 -3.02921 -1.55806 -59.52829 1.96452 2.73605 44.54923 -22.03941 32.23495 113.13831 62.14942 -26.77722 -0.91893 48.44326 12.19133 -26.04519 114.2359 -105.38754 -29.79325 6.75697 69.40705 12.63186 -0.94352 -73.54663 -4.03118 -2.89365 -3.58597 88.41901 -12.87067 28.34639 -89.07643 -16.80244 2.24571 -1.82665
0.80138 0.41214 0.25838 536.96945 0 5.47553 7.50744 -3.0415 -1.58609 -59.46799 1.91589 2.74061 44.60386 -22.0702 32.55535 113.10252 62.24865 -27.92037 -1.0587 48.40479 12.2128 -26.1482 114.31678 -105.33873 -29.73144 6.7589 69.41155 12.63105 -0.93309 -73.54652 -4.02937 -2.89663 -3.60781 88.415 -12.87361 28.36437 -89.01594 -16.80014 2.246 -1.8315
0.80139 0.41212 0.25839 536.97369 0 5.47153 7.53893 -3.06086 -1.56172 -59.27633 1.89465 2.74145 44.52222 -22.08707 32.73216 113.05798 62.15212 -28.75302 -1.11574 48.30918 12.20005 -26.26076 114.24223 -105.27197 -29.72521 6.74661 69.41604 12.62869 -0.93814 -73.55067 -4.02643 -2.89784 -3.60775 88.42209 -12.8718 28.39118 -88.98108 -16.79267 2.2428 -1.82045
0.80138 0.4121 0.25839 536.97112 0 5.46835 7.56014 -3.0826 -1.51856 -59.03561 1.88479 2.73973 44.38993 -22.1009 32.85902 113.01068 61.99351 -29.4664 -1.14433 48.19001 12.17521 -26.37455 114.1139 -105.20115 -29.73863 6.72972 69.42031 12.6258 -0.94916 -73.55621 -4.02306 -2.8985 -3.60008 88.43259 -12.86842 28.42109 -88.95562 -16.78366 2.23848 -1.80397
0.80138 0.41208 0.2584 536.9717 0 5.46448 7.58496 -3.10308 -1.48398 -58.81611 1.87164 2.73853 44.27829 -22.11842 33.00637 112.96609 61.87091 -30.20907 -1.18541 48.07882 12.15579 -26.48341 114.01281 -105.13407 -29.74173 6.71544 69.42457 12.62322 -0.95769 -73.56101 -4.02004 -2.89943 -3.59596 88.44121 -12.86593 28.44863 -88.92684 -16.77571 2.23484 -1.79007
0.80138 0.41206 0.2584 536.97223 0 5.46181 7.61426 -3.12411 -1.44885 -58.60211 1.84998 2.73851 44.17863 -22.12541 33.16671 112.91456 61.71967 -31.0662 -1.23007 47.98022 12.13803 -26.61112 113.90106 -105.05855 -29.75017 6.69893 69.42925 12.62033 -0.96532 -73.56625 -4.01623 -2.90032 -3.59172 88.45104 -12.86273 28.48063 -88.89346 -16.7663 2.23048 -1.77588
0.80138 0.41204 0.25841 536.97115 0 5.45689 7.63154 -3.14474 -1.41094 -58.36396 1.84925 2.73674 44.04041 -22.15448 33.28618 112.87733 61.61012 -31.65338 -1.25961 47.84853 12.11274 -26.70006 113.79782 -105.00049 -29.75293 6.68607 69.43301 12.61796 -0.97624 -73.57089 -4.01405 -2.90113 -3.58576 88.45921 -12.86063 28.50395 -88.87218 -16.75952 2.22735 -1.76094
0.80135 0.41203 0.25842 536.96749 0 5.44549 7.62131 -3.16223 -1.36527 -58.07931 1.90002 2.72159 43.81802 -22.23803 33.31175 112.87793 61.6502 -31.51938 -1.25709 47.64179 12.07811 -26.67712 113.73721 -104.98318 -29.72825 6.68328 69.43442 12.61714 -0.99485 -73.57372 -4.01606 -2.90208 -3.57754 88.46229 -12.86206 28.50209 -88.8813 -16.76054 2.22801 -1.74522
0.80132 0.41202 0.25843 536.96236 0 5.43178 7.59878 -3.17947 -1.31839 -57.77046 1.97207 2.70653 43.55657 -22.34517 33.2962 112.89355 61.73037 -31.1172 -1.23957 47.40052 12.03473 -26.61576 113.68588 -104.98511 -29.69851 6.68451 69.43491 12.61687 -1.01662 -73.57587 -4.01984 -2.9029 -3.56767 88.46359 -12.86463 28.49139 -88.9025 -16.76423 2.22993 -1.72896
0.80129 0.41201 0.25844 536.95779 0 5.41924 7.57989 -3.1979 -1.27502 -57.46737 2.03686 2.69757 43.30635 -22.44636 33.29466 112.90394 61.77925 -30.83985 -1.22694 47.16821 11.98962 -26.57492 113.6262 -104.98372 -29.67557 6.68466 69.43575 12.61637 -1.03685 -73.57823 -4.02308 -2.90362 -3.55817 88.46548 -12.86661 28.48501 -88.91869 -16.76657 2.2312 -1.71291
